<svg width="120" height="76" viewBox="0 0 120 76" fill="none" xmlns="http://www.w3.org/2000/svg">
<path d="M6.464 55.632L6.848 17.68C6.848 15.5893 7.89333 14.544 9.984 14.544H12.096C14.4427 14.544 16.1067 15.888 17.088 18.576C18.2827 21.9467 20.1387 27.408 22.656 34.96C25.216 42.512 27.2427 48.3573 28.736 52.496C30.1013 48.656 32.064 43.0027 34.624 35.536C37.2267 28.0693 39.2107 22.416 40.576 18.576C41.5147 15.888 43.1573 14.544 45.504 14.544H47.808C48.7893 14.544 49.5787 14.8427 50.176 15.44C50.7733 15.9947 51.072 16.7413 51.072 17.68V21.2L51.328 55.632C51.328 57.2107 50.496 58 48.832 58H48.256C46.592 58 45.76 57.2107 45.76 55.632L45.952 18.576C38.656 38.5013 34.1547 50.7253 32.448 55.248C31.7227 57.0827 30.5067 58 28.8 58H28.352C26.56 58 25.344 57.0827 24.704 55.248C23.552 52.0907 21.5467 46.288 18.688 37.84C15.872 29.3493 13.5893 22.928 11.84 18.576L12.032 55.632C12.032 57.2107 11.2 58 9.536 58H8.96C7.296 58 6.464 57.2107 6.464 55.632Z" fill="#05D270"/>
<path d="M64.2765 55.632L64.6605 17.68C64.6605 15.5893 65.7058 14.544 67.7965 14.544H69.9085C72.2552 14.544 73.9192 15.888 74.9005 18.576C76.0952 21.9467 77.9512 27.408 80.4685 34.96C83.0285 42.512 85.0552 48.3573 86.5485 52.496C87.9138 48.656 89.8765 43.0027 92.4365 35.536C95.0392 28.0693 97.0232 22.416 98.3885 18.576C99.3272 15.888 100.97 14.544 103.317 14.544H105.621C106.602 14.544 107.391 14.8427 107.989 15.44C108.586 15.9947 108.885 16.7413 108.885 17.68V21.2L109.141 55.632C109.141 57.2107 108.309 58 106.645 58H106.069C104.405 58 103.573 57.2107 103.573 55.632L103.765 18.576C96.4685 38.5013 91.9672 50.7253 90.2605 55.248C89.5352 57.0827 88.3192 58 86.6125 58H86.1645C84.3725 58 83.1565 57.0827 82.5165 55.248C81.3645 52.0907 79.3592 46.288 76.5005 37.84C73.6845 29.3493 71.4018 22.928 69.6525 18.576L69.8445 55.632C69.8445 57.2107 69.0125 58 67.3485 58H66.7725C65.1085 58 64.2765 57.2107 64.2765 55.632Z" fill="white"/>
<path d="M58 61.5H54.5V68.5H58V61.5ZM109 68.5C110.933 68.5 112.5 66.933 112.5 65C112.5 63.067 110.933 61.5 109 61.5V68.5ZM58 68.5L109 68.5V61.5L58 61.5V68.5Z" fill="white"/>
<path d="M9 61.5H5.5V68.5H9V61.5ZM57 68.5C58.933 68.5 60.5 66.933 60.5 65C60.5 63.067 58.933 61.5 57 61.5V68.5ZM9 68.5L57 68.5V61.5L9 61.5V68.5Z" fill="#05D270"/>
</svg>
