<svg width="30" height="28" viewBox="0 0 30 28" fill="none" xmlns="http://www.w3.org/2000/svg">
<path fill-rule="evenodd" clip-rule="evenodd" d="M14.5536 22.9538L5.55898 27.6826L7.2768 17.6669L0 10.5738L10.0563 9.11255L14.5536 0L19.0509 9.11255L29.1072 10.5738L21.8304 17.6669L23.5482 27.6826L14.5536 22.9538ZM14.5536 20.1334L20.2326 23.1191L19.148 16.7954L23.7425 12.3169L17.3931 11.3943L14.5536 5.64081L11.7141 11.3943L5.36473 12.3169L9.95917 16.7954L8.87457 23.1191L14.5536 20.1334Z" fill="#D9D9D9"/>
<path d="M12 10.5L5 11.5L9 17L8 24L16 22L22 24L21 17L25.5 11.5L19 10.5L14.5 4L12 10.5Z" fill="#D9D9D9"/>
</svg>
