<svg width="30" height="28" viewBox="0 0 30 28" fill="none" xmlns="http://www.w3.org/2000/svg">
<path d="M11.5 10.5L4.5 11.5L8.5 17L7.5 24L15.5 22L21.5 24L20.5 17L25 11.5L18.5 10.5L14 4L11.5 10.5Z" fill="#05D270" stroke="#05D270"/>
<path fill-rule="evenodd" clip-rule="evenodd" d="M14.5536 22.9538L5.55898 27.6826L7.2768 17.6669L0 10.5738L10.0563 9.11255L14.5536 0L19.0509 9.11255L29.1072 10.5738L21.8304 17.6669L23.5482 27.6826L14.5536 22.9538ZM14.5536 20.1334L20.2326 23.1191L19.148 16.7954L23.7425 12.3169L17.3931 11.3943L14.5536 5.64081L11.7141 11.3943L5.36473 12.3169L9.95917 16.7954L8.87457 23.1191L14.5536 20.1334Z" fill="#05D270"/>
</svg>
